<?xml version="1.0" encoding="UTF-8"?>
<svg width="344px" height="219px" viewBox="0 0 344 219" version="1.1" xmlns="http://www.w3.org/2000/svg" xmlns:xlink="http://www.w3.org/1999/xlink">
    <!-- Generator: Sketch 52.4 (67378) - http://www.bohemiancoding.com/sketch -->
    <title>Byzantine White</title>
    <desc>Created with Sketch.</desc>
    <g id="Byzantine-White" stroke="none" stroke-width="1" fill="none" fill-rule="evenodd">
        <g id="Group-2" transform="translate(35.000000, 43.000000)" fill="#FFFFFF" fill-rule="nonzero">
            <g id="Group" transform="translate(93.000000, 0.000000)">
                <polygon id="Path-2" points="32.3529928 81.6662348 28.0716159 78.9387895 28.0716159 86.0389455 4.90550832 72.8009902 4.90550832 46.9501714 25.4342475 58.7883734 25.4342475 53.9300852 0.619103885 39.6857822 0.619103885 75.0009618 32.3529928 93.5132349"></polygon>
                <polygon id="Path-3" points="55.9979745 65.5437233 55.9979745 93.3255398 87.4712688 75.0445339 87.4712688 39.2886058 76.3649942 45.9823683 76.3649942 50.6973713 83.1802557 46.8114949 83.1802557 72.5341111 60.4879946 85.6757051 60.4879946 62.91641"></polygon>
                <path d="M14.4042241,44.6203215 L14.4042241,33.0033317 L44.6323621,15.3168335 L58.421672,23.4564352 L66.6169958,18.7498115 L44.6323621,5.79758853 L22.1571236,18.7498115 L27.5428854,21.9515223 L23.4047936,24.4007765 L14.4042241,18.7498115 L44.6323621,0.992089669 L74.9036533,18.7498115 L62.4424543,26.0276076 L74.216136,33.0033317 L74.216136,67.8584906 L62.9988364,74.2598173 L62.9988364,69.3960827 L69.6528672,65.4249076 L69.6528672,38.3827328 L60.3141181,43.7522374 L60.3141181,52.0706068 L56.1435597,54.6854111 L56.1435597,46.2646787 L46.6195824,51.6478316 L46.6195824,62.9703094 L67.7336435,50.7627672 L67.7336435,55.6801188 L46.6195824,67.8584906 L46.6195824,78.8347768 L53.5337923,74.8504215 L53.5337923,79.5935624 L44,85.1978517 L14.4042241,67.8584906 L14.4042241,55.3234733 L18.4626266,57.7983816 L18.4626266,65.4249076 L42.2685078,79.3319682 L42.2685078,68.483772 L34.6960879,64.0454452 L34.6960879,59.2218763 L42.2685078,63.669302 L42.2685078,51.6478316 L32.2198798,45.9523905 L32.2198798,70.6116212 L27.9627192,68.1991056 L27.9627192,43.5460492 L18.7237333,38.0983913 L18.4626266,46.8486349 L14.4042241,44.6203215 Z M20.6083486,34.1930017 L30.3636986,39.836124 L37.6995464,35.5807506 L42.0223493,38.1715077 L34.6709034,42.3009584 L44.3498875,48.0449813 L54.0153856,42.3009584 L32.7219457,29.7488256 L37.0085154,27.327211 L58.4306401,39.836124 L68.0914263,34.1930017 L58.4306401,28.4156702 L51.0203761,32.850585 L46.7404681,30.2260318 L54.0153856,25.9942182 L44.3234031,20.3499585 L20.6083486,34.1930017 Z" id="Combined-Shape"></path>
            </g>
            <path d="M0.759090909,102.500237 C11.3506949,102.500237 18.5123715,102.500237 22.2441206,102.500237 C27.8417442,102.500237 30.0091233,107.493003 30.0091233,111.059118 C30.0091233,113.436527 29.2866636,115.259587 27.8417442,116.528296 C30.6950997,118.089502 32.1217774,120.656129 32.1217774,124.228177 C32.1217774,129.586249 27.8417442,132.435002 24.5798818,132.435002 C22.4053068,132.435002 14.4650432,132.435002 0.759090909,132.435002 L0.759090909,102.500237 Z M5.30454545,107.051591 L5.30454545,115.411224 C15.2746654,115.411224 20.9047168,115.411224 22.1946997,115.411224 C24.129674,115.411224 25.7540479,113.303168 25.7540479,111.198652 C25.7540479,109.094136 24.4365072,107.051591 22.1946997,107.051591 C20.7001613,107.051591 15.0701099,107.051591 5.30454545,107.051591 Z M5.30454545,120 L5.30454545,128.359633 C16.4545567,128.38147 22.6745538,128.392389 23.9645367,128.392389 C25.8995111,128.392389 27.5238849,126.284333 27.5238849,124.179817 C27.5238849,122.075301 26.2063442,120.032755 23.9645367,120.032755 C22.4699984,120.032755 16.2500013,120.021837 5.30454545,120 Z" id="Combined-Shape"></path>
            <polygon id="Path-8" points="27.6317654 102.64803 34 102.64803 47.1495532 115.893032 60.2551765 102.64803 66.542139 102.64803 49.270974 119.828465 49.270974 132.480883 44.9802303 132.480883 44.9802303 119.828465"></polygon>
            <polygon id="Path-9" points="69.0551332 102.614006 95.9273092 102.614006 95.9273092 106.088325 73.2958857 128.724375 97.9694901 128.724375 95.9273092 132.920956 67.0141461 132.920956 67.0141461 129.048945 89.3841227 106.884157 65.1395479 106.884157"></polygon>
            <path d="M98.2004945,133.045113 L114.798643,102.617289 L117.637849,102.617289 L134.251516,133.045113 L129.555172,133.045113 L124.725567,124.110852 L107.647204,124.110852 L102.819838,133.045113 L98.2004945,133.045113 Z M110.093046,119.800111 L122.255699,119.800111 L116.164673,108.827549 L110.093046,119.800111 Z" id="Combined-Shape"></path>
            <polygon id="Path-12" points="136.371893 133.150916 136.371893 102.511636 139.641471 102.511636 163.067831 126.064093 163.067831 102.511636 167.096083 102.511636 167.096083 132.959606 164.127049 132.959606 140.535793 109.181815 140.535793 133.150916"></polygon>
            <polygon id="Path-13" points="169.165125 102.522679 169.165125 106.892364 182.103165 106.892364 182.103165 132.982587 186.367496 132.982587 186.367496 106.892364 199.251068 106.892364 199.251068 102.522679"></polygon>
            <polygon id="Path-14" points="201.906127 102.622065 206.125988 102.622065 206.125988 133.036309 201.906127 133.036309"></polygon>
            <polygon id="Path-15" points="210.045453 102.56506 210.045453 133.013626 214.346195 133.013626 214.346195 108.903058 237.959238 133.013626 240.946478 133.013626 240.946478 102.56506 236.827794 102.56506 236.827794 126.169597 213.363829 102.56506"></polygon>
            <polygon id="Path-16" points="245.645956 102.622811 245.645956 133.030489 273.029983 133.030489 273.029983 128.639614 249.989228 128.639614 249.989228 120.034697 270.678603 120.034697 270.678603 115.769173 249.989228 115.769173 249.989228 106.830435 273.029983 106.830435 273.029983 102.622811"></polygon>
        </g>
    </g>
</svg>